<?xml version="1.0" encoding="utf-8"?>
<!-- Generator: Adobe Illustrator 25.3.1, SVG Export Plug-In . SVG Version: 6.00 Build 0)  -->
<svg version="1.1" id="レイヤー_1" xmlns="http://www.w3.org/2000/svg" xmlns:xlink="http://www.w3.org/1999/xlink" x="0px"
	 y="0px" viewBox="0 0 36 32.9" style="enable-background:new 0 0 36 32.9;" xml:space="preserve">
<style type="text/css">
	.st0{fill:#231815;}
</style>
<g id="レイヤー_2_1_">
	<g id="レイヤー_1-2">
		<path class="st0" d="M35.6,10.7H0.4c-0.2,0-0.4,1.2-0.4,2.7s0.3,2.7,0.6,2.7s0.8,1.4,1.1,3.1l1.6,10.6c0.3,1.8,1.9,3.1,3.7,3.1h22
			c1.8-0.1,3.3-1.4,3.7-3.1l1.6-10.6c0.3-1.7,0.8-3.1,1.1-3.1s0.6-1.2,0.6-2.7S35.8,10.7,35.6,10.7z"/>
		<path class="st0" d="M10.5,7.8l4.2-4.2c1.2-1.2,1.8-2.7,1.2-3.3s-2.1-0.1-3.3,1.2L8.3,5.6C7.1,6.8,6.6,8.3,7.2,8.9S9.2,9,10.5,7.8
			z"/>
		<path class="st0" d="M25.5,7.8c1.2,1.2,2.7,1.8,3.3,1.2s0.1-2.1-1.2-3.3l-4.2-4.2c-1.2-1.2-2.7-1.8-3.3-1.2s-0.1,2.1,1.2,3.3
			L25.5,7.8z"/>
	</g>
</g>
</svg>
